<?xml version="1.0" standalone="no"?>
<!DOCTYPE svg PUBLIC "-//W3C//DTD SVG 20010904//EN"
 "http://www.w3.org/TR/2001/REC-SVG-20010904/DTD/svg10.dtd">
<svg version="1.0" xmlns="http://www.w3.org/2000/svg"
 width="3840.000000pt" height="2160.000000pt" viewBox="0 0 3840.000000 2160.000000"
 preserveAspectRatio="xMidYMid meet">

<g transform="translate(0.000000,2160.000000) scale(0.100000,-0.100000)"
fill="#000000" stroke="none">
<path d="M14090 20690 c-8 -5 -127 -13 -265 -20 -247 -10 -355 -19 -510 -39
-191 -26 -223 -30 -280 -41 -33 -6 -85 -15 -115 -20 -73 -11 -277 -59 -390
-91 -19 -6 -48 -14 -65 -19 -124 -34 -281 -91 -425 -153 -25 -10 -54 -23 -65
-27 -66 -28 -306 -147 -399 -199 -60 -34 -111 -61 -114 -61 -5 0 -345 -231
-352 -239 -3 -4 -25 -22 -50 -41 -143 -109 -458 -412 -584 -559 -129 -152
-305 -395 -403 -556 -98 -161 -222 -410 -288 -580 -26 -66 -51 -129 -56 -140
-32 -75 -120 -372 -157 -535 -40 -174 -50 -229 -92 -512 -35 -243 -49 -443
-62 -893 -16 -540 -23 -9505 -8 -9905 6 -162 13 -412 16 -555 3 -158 10 -276
17 -300 l12 -40 6 30 c4 19 7 0 8 -50 0 -55 -2 -75 -9 -65 -7 11 -10 4 -10
-25 0 -22 5 -47 10 -55 7 -11 10 -5 10 25 0 22 5 47 10 55 8 12 10 11 10 -7 0
-35 27 -28 70 17 21 22 43 40 50 40 14 0 60 46 60 60 0 5 9 10 21 10 12 0 34
14 49 30 15 17 33 30 40 30 7 0 25 14 40 30 15 17 34 30 42 30 7 0 20 9 28 20
8 11 20 20 27 20 7 0 13 5 13 10 0 6 9 10 20 10 11 0 20 5 20 11 0 15 26 39
42 39 8 0 20 9 28 20 8 11 22 20 32 20 10 0 18 5 18 10 0 6 7 10 15 10 8 0 15
5 15 10 0 6 8 10 18 10 10 0 24 9 32 20 8 11 21 20 30 20 9 0 22 9 30 20 8 11
22 20 32 20 10 0 18 7 18 15 0 9 9 15 23 15 12 0 29 9 37 20 8 11 21 20 30 20
9 0 22 9 30 20 8 11 22 20 32 20 10 0 18 5 18 10 0 6 9 10 20 10 11 0 20 5 20
10 0 6 10 10 23 10 12 0 29 9 37 20 8 11 22 20 32 20 10 0 18 5 18 10 0 6 9
10 20 10 11 0 20 7 20 15 0 8 8 15 18 15 10 0 24 9 32 20 8 11 25 20 37 20 13
0 23 5 23 10 0 6 9 10 20 10 11 0 20 5 20 10 0 6 9 10 20 10 11 0 20 5 20 10
0 6 9 10 20 10 11 0 20 5 20 10 0 6 9 10 20 10 11 0 20 5 20 10 0 6 11 10 25
10 14 0 25 5 25 10 0 6 9 10 20 10 11 0 20 7 20 15 0 8 9 15 20 15 11 0 20 5
20 10 0 6 9 10 20 10 11 0 20 5 20 10 0 6 9 10 20 10 11 0 20 5 20 10 0 6 11
10 25 10 14 0 25 5 25 10 0 6 9 10 20 10 11 0 20 5 20 10 0 6 14 10 30 10 17
0 30 5 30 10 0 6 9 10 20 10 11 0 20 5 20 10 0 6 11 10 25 10 14 0 25 5 25 10
0 6 14 10 30 10 17 0 30 5 30 10 0 6 9 10 20 10 11 0 20 7 20 15 0 8 9 15 20
15 11 0 20 5 20 10 0 6 16 10 35 10 19 0 35 5 35 10 0 6 9 10 20 10 11 0 20 5
20 10 0 6 14 10 30 10 17 0 30 5 30 10 0 6 9 10 20 10 11 0 20 5 20 10 0 6 16
10 35 10 19 0 35 5 35 10 0 6 14 10 30 10 17 0 30 5 30 10 0 6 14 10 30 10 17
0 30 5 30 10 0 6 16 10 35 10 19 0 35 5 35 10 0 6 14 10 30 10 20 0 30 5 30
15 0 10 10 15 30 15 17 0 30 5 30 10 0 6 14 9 30 8 27 -2 30 -6 31 -38 0 -33
1 -34 12 -12 8 19 7 30 -7 57 -10 19 -16 40 -13 48 3 8 -1 23 -8 34 -8 10 -15
32 -15 50 0 17 -4 35 -10 38 -5 3 -10 26 -10 50 0 24 -4 47 -10 50 -5 3 -10
26 -10 50 0 24 -4 47 -10 50 -5 3 -10 30 -10 59 0 28 -4 56 -9 61 -5 6 -12 39
-15 75 -4 36 -11 99 -17 140 -42 320 -60 665 -79 1525 -14 648 -8 4309 9 4655
6 124 15 331 21 460 27 576 84 969 205 1415 28 106 132 406 170 492 9 21 21
47 25 58 34 80 168 347 214 423 216 358 463 648 821 961 93 82 392 301 410
301 4 0 20 9 36 21 26 18 258 149 265 149 2 0 45 20 97 45 90 43 338 143 422
170 271 87 487 143 695 179 47 8 99 17 115 20 62 11 344 45 455 55 133 12 389
26 745 41 918 39 4303 39 5245 0 921 -37 1232 -77 1785 -225 33 -9 74 -20 90
-25 87 -27 162 -52 180 -60 11 -4 90 -36 175 -70 507 -203 898 -465 1280 -857
395 -404 654 -817 852 -1358 16 -44 35 -98 42 -120 177 -550 243 -983 276
-1810 26 -640 30 -1028 30 -2788 0 -1857 -7 -2332 -40 -2987 -27 -537 -71
-865 -166 -1247 -40 -163 -91 -329 -154 -508 -62 -174 -205 -471 -313 -650
-267 -443 -664 -859 -1124 -1178 -45 -31 -85 -57 -88 -57 -4 0 -25 -13 -48
-28 -106 -72 -425 -232 -582 -291 -76 -29 -106 -41 -127 -52 -10 -5 -27 -9
-37 -9 -11 0 -23 -5 -26 -10 -3 -6 -15 -10 -26 -10 -10 0 -27 -4 -37 -9 -9 -6
-30 -12 -45 -16 -15 -3 -25 -10 -22 -15 4 -6 -9 -10 -30 -10 -20 0 -34 -4 -30
-9 3 -6 -14 -12 -37 -14 -24 -2 -18 -3 13 -2 65 3 67 2 93 -45 11 -19 32 -47
48 -62 15 -14 28 -35 28 -46 0 -11 7 -22 15 -26 8 -3 15 -12 15 -21 0 -8 9
-15 21 -15 16 0 19 -4 14 -20 -5 -16 -2 -20 14 -20 12 0 21 -4 21 -10 0 -5 -4
-10 -10 -10 -5 0 -10 -4 -10 -10 0 -5 9 -10 21 -10 16 0 19 -4 14 -22 -5 -18
-4 -20 4 -8 9 13 12 12 17 -7 4 -13 10 -23 15 -23 5 0 9 -7 9 -17 0 -16 47
-85 62 -91 4 -2 8 -10 8 -19 0 -8 13 -28 30 -43 16 -15 30 -36 30 -45 0 -18
23 -45 37 -45 15 0 43 -68 36 -85 -7 -19 16 -67 29 -59 4 3 8 -5 8 -18 0 -13
9 -30 20 -38 12 -9 18 -21 14 -32 -3 -10 0 -18 6 -18 15 0 40 -25 40 -41 0 -6
8 -19 18 -28 25 -21 42 -55 42 -80 0 -12 4 -21 8 -21 10 0 42 -65 42 -85 0 -8
5 -15 10 -15 6 0 10 -14 10 -31 0 -30 22 -64 34 -52 3 4 6 -6 6 -20 0 -15 5
-27 10 -27 6 0 10 -9 10 -20 0 -11 5 -20 10 -20 6 0 10 -9 10 -20 0 -11 5 -20
10 -20 6 0 10 -11 10 -25 0 -14 3 -25 8 -25 4 0 12 -15 18 -33 6 -17 14 -40
19 -50 5 -12 3 -17 -9 -17 -9 0 -16 -4 -16 -10 0 -5 5 -10 10 -10 6 0 10 -11
10 -25 0 -18 4 -23 16 -18 12 4 14 0 8 -21 -5 -20 -2 -26 10 -26 9 0 16 -8 16
-20 0 -11 5 -20 10 -20 6 0 10 -9 10 -20 0 -11 4 -20 9 -20 5 0 12 -18 16 -40
4 -22 13 -47 21 -54 8 -8 14 -21 14 -30 0 -8 5 -18 10 -21 6 -3 10 -24 10 -46
0 -21 4 -39 9 -39 5 0 11 -17 14 -37 2 -21 12 -63 22 -93 9 -30 19 -70 22 -87
3 -18 9 -33 14 -33 5 0 9 -16 9 -35 0 -19 5 -35 10 -35 6 0 10 -13 10 -30 0
-16 5 -30 10 -30 6 0 10 -18 10 -40 0 -22 5 -40 10 -40 6 0 10 -16 10 -35 0
-19 5 -35 10 -35 6 0 10 -18 10 -40 0 -22 5 -40 10 -40 6 0 10 -20 10 -45 0
-25 4 -45 9 -45 5 0 11 -12 13 -27 2 -19 10 -29 28 -34 19 -5 14 -7 -22 -8
-26 -1 -50 -5 -53 -11 -9 -15 111 -13 127 2 8 8 47 14 103 15 163 3 489 54
720 112 22 6 58 14 80 19 38 9 92 25 250 74 39 12 74 25 79 30 6 4 19 8 31 8
12 0 25 4 31 8 5 4 27 14 49 21 22 7 49 16 60 21 168 70 362 163 520 250 76
42 354 224 421 276 28 21 68 52 90 69 95 72 241 203 366 328 353 352 636 765
854 1242 64 141 163 407 195 523 5 17 13 47 18 65 73 257 131 561 160 827 6
52 16 138 22 190 24 201 31 1565 31 5690 0 4135 -8 5555 -31 5750 -6 52 -16
138 -22 190 -24 220 -64 454 -115 670 -95 399 -258 797 -502 1222 -88 154
-269 400 -413 563 -505 571 -1113 974 -1826 1211 -340 112 -672 181 -1128 233
-166 20 -418 31 -827 37 -225 4 -408 11 -408 16 0 11 -9741 9 -9760 -2z m9820
-17130 c0 -5 -4 -10 -10 -10 -5 0 -10 5 -10 10 0 6 5 10 10 10 6 0 10 -4 10
-10z m327 -562 c-3 -8 -6 -5 -6 6 -1 11 2 17 5 13 3 -3 4 -12 1 -19z"/>
<path d="M17260 16829 c-834 -17 -1322 -47 -1630 -99 -150 -26 -320 -64 -405
-90 -89 -28 -223 -72 -240 -80 -11 -4 -47 -18 -80 -31 -133 -49 -344 -162
-475 -252 -168 -116 -410 -348 -545 -523 -192 -248 -354 -591 -440 -935 -14
-57 -30 -120 -35 -139 -5 -19 -18 -87 -29 -150 -58 -337 -70 -490 -103 -1265
-18 -420 -17 -4263 1 -4685 31 -725 40 -894 61 -1095 22 -208 65 -464 83 -481
4 -4 7 -22 7 -40 0 -18 5 -36 10 -39 6 -3 10 -24 10 -46 0 -21 5 -39 10 -39 6
0 10 -16 10 -35 0 -19 5 -35 10 -35 6 0 10 -13 10 -29 0 -17 5 -33 10 -36 6
-3 10 -17 10 -30 0 -13 5 -27 10 -30 6 -3 10 5 10 19 0 14 -4 28 -10 31 -16
10 -12 85 5 91 8 4 15 12 15 20 0 15 47 31 57 20 4 -4 -3 -13 -15 -22 -36 -25
-25 -35 13 -11 19 12 34 28 35 36 0 8 6 11 16 7 8 -3 22 1 30 9 9 8 27 15 41
15 15 0 36 12 53 30 27 29 50 39 50 22 0 -4 -9 -14 -20 -22 -21 -15 -27 -40
-10 -40 5 0 19 10 32 22 24 24 81 48 114 48 10 0 25 9 32 20 7 11 21 20 33 20
11 0 27 7 35 15 9 8 20 15 25 15 14 0 11 -28 -3 -33 -7 -2 -10 -8 -6 -12 4 -4
20 6 35 22 22 23 40 31 78 35 27 4 51 11 53 17 2 6 12 11 22 11 9 0 23 7 30
15 7 8 34 18 61 21 27 4 49 10 49 15 0 5 7 9 15 9 8 0 15 -7 15 -15 0 -12 7
-14 28 -9 15 4 29 11 30 16 5 11 42 10 42 -2 0 -16 31 -11 49 8 11 12 35 18
76 20 33 2 62 7 63 13 2 5 11 9 19 9 9 0 23 9 33 20 13 15 32 20 78 22 43 1
62 6 62 15 0 7 5 13 10 13 6 0 10 -7 10 -16 0 -11 5 -14 16 -10 9 3 33 9 55
12 21 4 39 10 39 14 0 4 31 10 69 14 38 4 71 12 73 18 4 10 96 19 221 22 38 1
57 5 57 14 0 14 26 16 164 12 74 -2 100 1 107 11 6 10 30 14 86 12 50 -1 81 3
86 10 6 9 10 9 14 0 6 -16 83 -18 83 -3 0 6 21 10 48 10 109 -2 162 1 162 10
0 6 20 10 45 10 25 0 45 -4 45 -10 0 -5 9 -10 20 -10 11 0 20 5 20 10 0 6 9
10 20 10 11 0 20 -4 20 -8 0 -4 25 -9 55 -10 31 -1 55 2 55 8 0 5 29 9 70 8
39 0 70 -5 70 -10 0 -4 7 -8 15 -8 8 0 15 5 15 10 0 6 22 10 49 10 30 0 52 5
55 13 5 9 7 10 12 0 3 -7 14 -13 24 -13 10 0 21 -6 24 -12 5 -10 7 -10 12 0 6
14 34 17 34 3 0 -5 36 -9 80 -9 44 -1 80 3 80 9 0 5 11 9 25 9 14 0 25 -4 25
-9 0 -5 30 -9 67 -9 41 0 69 -4 71 -11 2 -7 38 -11 98 -11 57 0 94 -4 94 -10
0 -7 44 -10 121 -8 87 1 123 -2 128 -11 11 -17 114 -39 191 -40 36 0 89 -5
119 -11 29 -5 82 -10 117 -10 56 0 64 -2 64 -19 0 -16 11 -19 87 -25 48 -3 92
-11 97 -16 6 -6 25 -10 43 -10 18 0 41 -4 51 -9 25 -14 106 -31 147 -31 19 0
43 -4 53 -10 15 -8 163 -35 265 -47 28 -4 37 -10 37 -24 0 -17 8 -19 92 -17
65 2 93 -1 96 -10 2 -6 12 -12 23 -12 10 0 19 -4 19 -10 0 -5 6 -10 14 -10 8
0 16 -7 20 -15 3 -9 18 -15 34 -15 16 0 39 -9 51 -19 18 -16 32 -19 71 -14 37
4 53 2 65 -11 9 -9 28 -19 43 -23 15 -3 30 -10 33 -15 4 -6 28 -10 55 -11 27
0 55 -6 62 -14 7 -7 24 -13 37 -13 34 0 55 -10 55 -26 0 -9 12 -14 35 -14 19
0 35 -5 35 -11 0 -8 14 -10 40 -6 28 3 45 1 54 -9 8 -8 22 -14 30 -14 9 0 16
-4 16 -10 0 -5 -4 -10 -10 -10 -5 0 -10 -6 -10 -14 0 -12 11 -13 55 -9 51 5
55 4 55 -16 0 -11 5 -21 10 -21 6 0 10 5 10 10 0 6 14 10 30 10 17 0 30 -4 30
-10 0 -5 -9 -10 -20 -10 -11 0 -20 -4 -20 -9 0 -12 54 -22 58 -10 5 12 52 12
52 -1 0 -5 -7 -10 -15 -10 -8 0 -15 -5 -15 -11 0 -7 15 -10 40 -7 28 2 40 0
40 -9 0 -7 7 -13 15 -13 8 0 15 -4 15 -10 0 -5 18 -14 40 -20 22 -6 40 -15 40
-20 0 -6 20 -10 45 -10 25 0 45 -4 45 -8 0 -5 24 -19 53 -33 28 -13 54 -27 55
-31 2 -5 14 -8 27 -8 13 0 28 -6 32 -13 4 -6 17 -12 27 -12 11 0 21 -6 24 -13
2 -7 -2 -10 -12 -6 -9 3 -16 2 -16 -4 0 -14 34 -25 38 -13 6 19 22 12 22 -9 0
-16 7 -20 30 -20 17 0 30 -5 30 -11 0 -7 14 -10 36 -7 33 4 35 2 29 -19 -4
-16 -1 -23 9 -23 8 0 16 6 19 13 2 6 8 8 13 4 5 -4 2 -12 -6 -18 -13 -7 -13
-10 -1 -18 7 -5 22 -6 32 -4 12 4 19 0 19 -10 0 -11 9 -15 33 -13 22 1 31 -3
29 -13 -3 -16 26 -40 50 -41 9 0 24 -7 33 -16 10 -10 24 -14 40 -10 20 5 25 3
25 -13 0 -11 9 -23 20 -26 11 -3 20 -11 20 -16 0 -5 7 -9 15 -9 8 0 15 -4 15
-10 0 -5 14 -10 30 -10 17 0 30 -4 30 -10 0 -5 9 -10 20 -10 11 0 20 -5 20
-11 0 -15 39 -49 57 -49 7 0 13 -7 13 -15 0 -8 6 -12 14 -9 7 3 21 -2 30 -11
9 -9 23 -14 31 -11 9 3 15 0 15 -9 0 -8 6 -12 14 -9 7 3 20 -2 29 -10 9 -9 21
-16 27 -16 7 0 25 -13 40 -30 15 -16 33 -30 39 -30 6 0 11 -7 11 -16 0 -13 7
-15 30 -10 22 4 30 2 30 -8 0 -8 -6 -16 -12 -18 -9 -3 -8 -10 5 -22 10 -10 21
-15 25 -12 3 4 0 11 -8 17 -13 8 -13 10 0 19 11 7 16 5 18 -5 2 -8 8 -15 13
-15 5 0 21 -10 35 -22 55 -51 64 -58 69 -58 8 0 100 -64 103 -72 2 -5 10 -8
18 -8 8 0 14 -5 14 -10 0 -6 16 -18 35 -27 19 -9 35 -20 35 -25 0 -4 5 -8 11
-8 6 0 28 -18 50 -40 22 -22 45 -40 51 -40 6 0 18 -8 27 -18 9 -10 30 -26 46
-36 17 -11 34 -25 38 -33 4 -7 15 -13 22 -13 8 0 15 -5 15 -11 0 -18 28 -39
44 -33 9 4 16 1 16 -6 0 -12 84 -100 95 -100 11 0 35 -28 35 -40 0 -7 7 -9 16
-6 16 6 44 -15 44 -32 0 -6 -6 -12 -12 -15 -7 -2 -9 -8 -5 -13 4 -5 12 -2 17
5 7 12 11 12 24 -2 9 -8 16 -23 16 -31 0 -9 7 -16 16 -16 18 0 44 -24 44 -40
0 -7 8 -10 18 -8 21 6 47 -26 36 -44 -5 -8 -2 -9 9 -5 20 7 47 -1 47 -14 0 -5
-9 -9 -20 -9 -11 0 -20 -4 -20 -10 0 -5 -26 -10 -57 -10 -32 0 -65 -5 -73 -10
-10 -7 9 -10 62 -10 42 0 80 5 83 10 3 6 42 10 85 10 43 0 82 5 85 10 3 6 35
10 70 10 35 0 67 5 70 10 3 6 22 10 40 10 36 0 77 8 243 49 45 12 331 102 352
112 16 7 54 23 93 38 138 53 358 181 517 299 85 63 365 339 428 422 248 323
423 724 507 1159 8 42 19 99 25 126 5 28 12 70 15 95 44 335 64 655 85 1379
13 434 13 3949 0 4383 -17 584 -38 984 -60 1178 -22 184 -29 229 -65 410 -35
178 -103 407 -171 575 -30 76 -127 272 -170 345 -152 258 -437 557 -714 751
-36 25 -72 49 -80 52 -8 4 -37 20 -65 37 -213 129 -561 255 -880 318 -430 86
-881 114 -2100 132 -753 11 -3134 11 -3695 -1z m6071 -1213 c195 -38 358 -124
485 -257 84 -89 128 -157 188 -289 54 -121 74 -371 41 -515 -48 -207 -169
-392 -340 -522 -44 -34 -176 -105 -215 -117 -179 -53 -303 -67 -426 -46 -115
20 -146 29 -244 71 -120 51 -261 165 -349 282 -42 56 -112 190 -129 247 -6 19
-17 55 -24 80 -18 61 -18 328 0 395 47 174 127 310 254 435 72 71 138 116 233
160 39 18 77 36 85 40 8 4 38 12 65 18 28 7 68 16 90 21 62 14 202 12 286 -3z
m-3763 -1026 c275 -29 386 -47 572 -91 137 -33 128 -31 320 -93 156 -51 249
-87 372 -145 48 -23 89 -41 92 -41 2 0 66 -34 142 -77 146 -80 340 -205 459
-293 365 -273 745 -691 959 -1055 32 -55 68 -116 80 -135 55 -87 201 -408 246
-540 7 -19 16 -44 20 -55 39 -98 116 -383 141 -525 46 -255 60 -422 60 -708 0
-244 -6 -349 -31 -527 -115 -795 -466 -1509 -1034 -2103 -95 -99 -303 -282
-437 -384 -68 -52 -266 -188 -274 -188 -3 0 -26 -13 -50 -30 -24 -16 -47 -30
-50 -30 -4 0 -19 -8 -33 -19 -47 -32 -409 -211 -429 -211 -3 0 -21 -7 -41 -16
-21 -9 -46 -20 -57 -25 -123 -52 -501 -157 -665 -184 -239 -40 -345 -48 -670
-47 -329 0 -498 8 -515 23 -5 5 -35 9 -66 9 -32 0 -61 5 -64 10 -3 6 -31 10
-61 10 -30 0 -54 5 -54 10 0 6 -20 10 -45 10 -25 0 -45 5 -45 10 0 6 -20 10
-45 10 -25 0 -45 5 -45 10 0 6 -18 10 -41 10 -24 0 -38 4 -34 10 4 6 -10 10
-35 10 -25 0 -39 4 -35 10 3 6 3 11 -2 11 -4 1 -17 3 -28 4 -11 2 -45 13 -75
24 -30 12 -63 21 -72 21 -10 0 -18 5 -18 10 0 6 -9 10 -20 10 -11 0 -30 5 -43
12 -48 24 -57 28 -77 28 -11 0 -20 5 -20 10 0 6 -11 10 -25 10 -14 0 -25 5
-25 10 0 6 -6 10 -13 10 -18 0 -201 91 -205 102 -2 4 -12 8 -23 8 -10 0 -19 5
-19 10 0 6 -9 10 -20 10 -11 0 -20 4 -20 8 0 5 -16 14 -35 22 -19 8 -35 17
-35 22 0 4 -5 8 -11 8 -6 0 -49 25 -95 55 -47 30 -89 55 -94 55 -6 0 -10 5
-10 10 0 6 -6 10 -13 10 -7 0 -22 8 -33 18 -10 10 -46 37 -79 60 -169 119
-265 202 -466 402 -237 236 -404 451 -577 740 -83 139 -252 482 -252 513 0 7
-4 17 -9 23 -9 9 -107 291 -123 354 -5 19 -13 51 -19 70 -5 19 -14 58 -20 85
-6 28 -15 68 -20 90 -106 465 -104 1138 6 1602 45 190 39 170 104 368 68 209
83 246 186 460 183 379 418 708 725 1015 372 373 772 639 1252 834 356 145
648 216 1098 265 109 12 506 13 618 1z m-3608 -7260 c0 -5 -4 -10 -10 -10 -5
0 -10 5 -10 10 0 6 5 10 10 10 6 0 10 -4 10 -10z m1470 -20 c0 -5 -9 -10 -20
-10 -11 0 -20 5 -20 10 0 6 9 10 20 10 11 0 20 -4 20 -10z m379 -46 c2 -2 2
-7 -2 -10 -9 -10 -97 6 -97 17 0 9 88 3 99 -7z m-2859 -64 c0 -5 -4 -10 -10
-10 -5 0 -10 5 -10 10 0 6 5 10 10 10 6 0 10 -4 10 -10z m-400 -100 c0 -5 -9
-10 -20 -10 -11 0 -20 5 -20 10 0 6 9 10 20 10 11 0 20 -4 20 -10z m6410 -890
c0 -5 -4 -10 -10 -10 -5 0 -10 5 -10 10 0 6 5 10 10 10 6 0 10 -4 10 -10z"/>
<path d="M19020 13259 c-133 -17 -218 -31 -315 -54 -92 -22 -262 -74 -310 -94
-11 -5 -36 -15 -55 -22 -148 -55 -435 -223 -597 -350 -189 -150 -429 -422
-555 -629 -111 -183 -217 -421 -259 -577 -5 -18 -14 -50 -19 -70 -52 -191 -80
-414 -80 -635 -1 -651 248 -1247 714 -1714 126 -125 315 -280 401 -328 17 -9
55 -32 85 -51 85 -54 245 -130 375 -180 95 -37 123 -46 233 -75 390 -106 874
-106 1265 0 87 23 103 28 117 33 8 3 59 22 113 42 372 136 740 396 999 706
160 191 273 376 388 634 53 119 126 372 149 515 7 41 17 101 22 133 14 78 13
492 -1 581 -30 194 -32 208 -64 331 -147 569 -510 1076 -1011 1412 -253 169
-610 314 -898 363 -217 38 -529 51 -697 29z"/>
<path d="M16210 7310 c0 -5 11 -10 25 -10 14 0 25 5 25 10 0 6 -11 10 -25 10
-14 0 -25 -4 -25 -10z"/>
<path d="M15520 7265 c0 -8 5 -15 10 -15 6 0 10 7 10 15 0 8 -4 15 -10 15 -5
0 -10 -7 -10 -15z"/>
<path d="M15213 7223 c9 -2 23 -2 30 0 6 3 -1 5 -18 5 -16 0 -22 -2 -12 -5z"/>
<path d="M19010 6970 c0 -5 18 -10 40 -10 22 0 40 5 40 10 0 6 -18 10 -40 10
-22 0 -40 -4 -40 -10z"/>
<path d="M19620 6780 c0 -5 5 -10 10 -10 6 0 10 5 10 10 0 6 -4 10 -10 10 -5
0 -10 -4 -10 -10z"/>
<path d="M19790 6720 c0 -5 9 -10 20 -10 11 0 20 5 20 10 0 6 -9 10 -20 10
-11 0 -20 -4 -20 -10z"/>
<path d="M13530 6605 c0 -8 5 -15 10 -15 6 0 10 7 10 15 0 8 -4 15 -10 15 -5
0 -10 -7 -10 -15z"/>
<path d="M13561 6544 c0 -11 3 -14 6 -6 3 7 2 16 -1 19 -3 4 -6 -2 -5 -13z"/>
<path d="M12170 6360 c0 -18 4 -29 10 -25 6 3 10 15 10 25 0 10 -4 22 -10 25
-6 4 -10 -7 -10 -25z"/>
<path d="M12190 6300 c0 -11 5 -20 10 -20 6 0 10 9 10 20 0 11 -4 20 -10 20
-5 0 -10 -9 -10 -20z"/>
<path d="M12210 6241 c0 -11 5 -23 10 -26 6 -3 10 3 10 14 0 11 -4 23 -10 26
-5 3 -10 -3 -10 -14z"/>
<path d="M12241 6174 c0 -11 3 -14 6 -6 3 7 2 16 -1 19 -3 4 -6 -2 -5 -13z"/>
<path d="M12261 6114 c0 -11 3 -14 6 -6 3 7 2 16 -1 19 -3 4 -6 -2 -5 -13z"/>
<path d="M12301 6004 c0 -11 3 -14 6 -6 3 7 2 16 -1 19 -3 4 -6 -2 -5 -13z"/>
<path d="M9470 4885 c0 -16 5 -37 10 -45 7 -12 10 -8 10 15 0 17 -5 37 -10 45
-7 12 -10 8 -10 -15z"/>
<path d="M22308 4893 c18 -2 45 -2 60 0 15 2 0 4 -33 4 -33 0 -45 -2 -27 -4z"/>
<path d="M9491 4735 c0 -11 4 -29 9 -40 8 -18 9 -18 9 5 0 14 -4 32 -9 40 -8
12 -10 12 -9 -5z"/>
<path d="M9521 4574 c0 -11 3 -14 6 -6 3 7 2 16 -1 19 -3 4 -6 -2 -5 -13z"/>
<path d="M23563 3703 c9 -2 25 -2 35 0 9 3 1 5 -18 5 -19 0 -27 -2 -17 -5z"/>
<path d="M23483 3683 c9 -2 23 -2 30 0 6 3 -1 5 -18 5 -16 0 -22 -2 -12 -5z"/>
<path d="M23388 3663 c7 -3 16 -2 19 1 4 3 -2 6 -13 5 -11 0 -14 -3 -6 -6z"/>
<path d="M24520 2350 c0 -5 5 -10 10 -10 6 0 10 5 10 10 0 6 -4 10 -10 10 -5
0 -10 -4 -10 -10z"/>
<path d="M24540 2300 c0 -5 5 -10 10 -10 6 0 10 5 10 10 0 6 -4 10 -10 10 -5
0 -10 -4 -10 -10z"/>
<path d="M24678 1003 c18 -2 45 -2 60 0 15 2 0 4 -33 4 -33 0 -45 -2 -27 -4z"/>
</g>
</svg>
